<svg width="60" height="60" viewBox="0 0 60 60" fill="none" xmlns="http://www.w3.org/2000/svg">
<g clip-path="url(#clip0_617_425)">
<path d="M30 0C24.0666 0 18.2664 1.75947 13.3329 5.05591C8.39943 8.35235 4.55426 13.0377 2.28363 18.5195C0.0129986 24.0013 -0.581102 30.0333 0.576455 35.8527C1.73401 41.6721 4.59123 47.0176 8.78681 51.2132C12.9824 55.4088 18.3279 58.266 24.1473 59.4236C29.9667 60.5811 35.9987 59.987 41.4805 57.7164C46.9623 55.4458 51.6477 51.6006 54.9441 46.6671C58.2405 41.7336 60 35.9334 60 30C59.9914 22.0461 56.8279 14.4205 51.2037 8.7963C45.5795 3.17207 37.9539 0.0086027 30 0ZM40 32.5H32.5V40C32.5 40.663 32.2366 41.2989 31.7678 41.7678C31.2989 42.2366 30.6631 42.5 30 42.5C29.337 42.5 28.7011 42.2366 28.2322 41.7678C27.7634 41.2989 27.5 40.663 27.5 40V32.5H20C19.337 32.5 18.7011 32.2366 18.2322 31.7678C17.7634 31.2989 17.5 30.663 17.5 30C17.5 29.337 17.7634 28.7011 18.2322 28.2322C18.7011 27.7634 19.337 27.5 20 27.5H27.5V20C27.5 19.337 27.7634 18.7011 28.2322 18.2322C28.7011 17.7634 29.337 17.5 30 17.5C30.6631 17.5 31.2989 17.7634 31.7678 18.2322C32.2366 18.7011 32.5 19.337 32.5 20V27.5H40C40.6631 27.5 41.2989 27.7634 41.7678 28.2322C42.2366 28.7011 42.5 29.337 42.5 30C42.5 30.663 42.2366 31.2989 41.7678 31.7678C41.2989 32.2366 40.6631 32.5 40 32.5Z" fill="#0B9604"/>
</g>
<defs>
<clipPath id="clip0_617_425">
<rect width="60" height="60" fill="white"/>
</clipPath>
</defs>
</svg>
