<svg width="27" height="27" viewBox="0 0 27 27" fill="none" xmlns="http://www.w3.org/2000/svg">
<g clip-path="url(#clip0_617_420)">
<path d="M23.625 4.5H20.1375C19.8764 3.23034 19.1855 2.08951 18.1814 1.26981C17.1773 0.450101 15.9212 0.00163634 14.625 0L12.375 0C11.0788 0.00163634 9.82273 0.450101 8.81859 1.26981C7.81445 2.08951 7.12361 3.23034 6.8625 4.5H3.375C3.07663 4.5 2.79048 4.61853 2.5795 4.8295C2.36853 5.04048 2.25 5.32663 2.25 5.625C2.25 5.92337 2.36853 6.20952 2.5795 6.4205C2.79048 6.63147 3.07663 6.75 3.375 6.75H4.5V21.375C4.50179 22.8663 5.09499 24.296 6.1495 25.3505C7.204 26.405 8.63371 26.9982 10.125 27H16.875C18.3663 26.9982 19.796 26.405 20.8505 25.3505C21.905 24.296 22.4982 22.8663 22.5 21.375V6.75H23.625C23.9234 6.75 24.2095 6.63147 24.4205 6.4205C24.6315 6.20952 24.75 5.92337 24.75 5.625C24.75 5.32663 24.6315 5.04048 24.4205 4.8295C24.2095 4.61853 23.9234 4.5 23.625 4.5ZM12.375 2.25H14.625C15.3228 2.25085 16.0033 2.46755 16.5731 2.87037C17.1429 3.2732 17.5741 3.84243 17.8076 4.5H9.19237C9.42591 3.84243 9.85714 3.2732 10.4269 2.87037C10.9967 2.46755 11.6772 2.25085 12.375 2.25ZM20.25 21.375C20.25 22.2701 19.8944 23.1286 19.2615 23.7615C18.6286 24.3944 17.7701 24.75 16.875 24.75H10.125C9.22989 24.75 8.37145 24.3944 7.73851 23.7615C7.10558 23.1286 6.75 22.2701 6.75 21.375V6.75H20.25V21.375Z" fill="#F80707"/>
<path d="M11.25 20.25C11.5484 20.25 11.8345 20.1315 12.0455 19.9205C12.2565 19.7095 12.375 19.4234 12.375 19.125V12.375C12.375 12.0766 12.2565 11.7905 12.0455 11.5795C11.8345 11.3685 11.5484 11.25 11.25 11.25C10.9516 11.25 10.6655 11.3685 10.4545 11.5795C10.2435 11.7905 10.125 12.0766 10.125 12.375V19.125C10.125 19.4234 10.2435 19.7095 10.4545 19.9205C10.6655 20.1315 10.9516 20.25 11.25 20.25Z" fill="#F80707"/>
<path d="M15.75 20.25C16.0484 20.25 16.3345 20.1315 16.5455 19.9205C16.7565 19.7095 16.875 19.4234 16.875 19.125V12.375C16.875 12.0766 16.7565 11.7905 16.5455 11.5795C16.3345 11.3685 16.0484 11.25 15.75 11.25C15.4516 11.25 15.1655 11.3685 14.9545 11.5795C14.7435 11.7905 14.625 12.0766 14.625 12.375V19.125C14.625 19.4234 14.7435 19.7095 14.9545 19.9205C15.1655 20.1315 15.4516 20.25 15.75 20.25Z" fill="#F80707"/>
</g>
<defs>
<clipPath id="clip0_617_420">
<rect width="27" height="27" fill="white"/>
</clipPath>
</defs>
</svg>
